<?xml version="1.0" standalone="no"?><svg xmlns="http://www.w3.org/2000/svg" viewBox="0 0 1440 320"><path fill="#f7bb7a" fill-opacity="0.5" d="M0,32L8.6,48C17.1,64,34,96,51,106.7C68.6,117,86,107,103,90.7C120,75,137,53,154,90.7C171.4,128,189,224,206,256C222.9,288,240,256,257,256C274.3,256,291,288,309,288C325.7,288,343,256,360,256C377.1,256,394,288,411,288C428.6,288,446,256,463,224C480,192,497,160,514,160C531.4,160,549,192,566,181.3C582.9,171,600,117,617,90.7C634.3,64,651,64,669,58.7C685.7,53,703,43,720,80C737.1,117,754,203,771,250.7C788.6,299,806,309,823,277.3C840,245,857,171,874,154.7C891.4,139,909,181,926,202.7C942.9,224,960,224,977,213.3C994.3,203,1011,181,1029,160C1045.7,139,1063,117,1080,106.7C1097.1,96,1114,96,1131,122.7C1148.6,149,1166,203,1183,208C1200,213,1217,171,1234,181.3C1251.4,192,1269,256,1286,272C1302.9,288,1320,256,1337,250.7C1354.3,245,1371,267,1389,277.3C1405.7,288,1423,288,1431,288L1440,288L1440,0L1431.4,0C1422.9,0,1406,0,1389,0C1371.4,0,1354,0,1337,0C1320,0,1303,0,1286,0C1268.6,0,1251,0,1234,0C1217.1,0,1200,0,1183,0C1165.7,0,1149,0,1131,0C1114.3,0,1097,0,1080,0C1062.9,0,1046,0,1029,0C1011.4,0,994,0,977,0C960,0,943,0,926,0C908.6,0,891,0,874,0C857.1,0,840,0,823,0C805.7,0,789,0,771,0C754.3,0,737,0,720,0C702.9,0,686,0,669,0C651.4,0,634,0,617,0C600,0,583,0,566,0C548.6,0,531,0,514,0C497.1,0,480,0,463,0C445.7,0,429,0,411,0C394.3,0,377,0,360,0C342.9,0,326,0,309,0C291.4,0,274,0,257,0C240,0,223,0,206,0C188.6,0,171,0,154,0C137.1,0,120,0,103,0C85.7,0,69,0,51,0C34.3,0,17,0,9,0L0,0Z"></path></svg>