<?xml version="1.0" standalone="no"?><svg xmlns="http://www.w3.org/2000/svg" viewBox="0 0 1440 320"><path fill="#ffcbe1" fill-opacity="1" d="M0,256L24,224C48,192,96,128,144,112C192,96,240,128,288,138.7C336,149,384,139,432,138.7C480,139,528,149,576,170.7C624,192,672,224,720,234.7C768,245,816,235,864,240C912,245,960,267,1008,272C1056,277,1104,267,1152,245.3C1200,224,1248,192,1296,192C1344,192,1392,224,1416,240L1440,256L1440,0L1416,0C1392,0,1344,0,1296,0C1248,0,1200,0,1152,0C1104,0,1056,0,1008,0C960,0,912,0,864,0C816,0,768,0,720,0C672,0,624,0,576,0C528,0,480,0,432,0C384,0,336,0,288,0C240,0,192,0,144,0C96,0,48,0,24,0L0,0Z"></path></svg>