<?xml version="1.0" encoding="utf-8"?>
<svg xmlns="http://www.w3.org/2000/svg" viewBox="0 0 1440 320">
  <path fill="#ffcbe1" fill-opacity="1" d="M 0 17.266 L 24 49.266 C 48 81.266 96 145.266 144 161.266 C 192 177.266 240 145.266 288 134.566 C 336 124.266 384 134.266 432 134.566 C 480 134.266 528 124.266 576 102.566 C 624 81.266 672 49.266 720 38.566 C 768 28.266 816 38.266 864 33.266 C 912 28.266 960 6.266 1008 1.266 C 1056 -3.734 1104 6.266 1152 27.966 C 1200 49.266 1248 81.266 1296 81.266 C 1344 81.266 1392 49.266 1416 33.266 L 1440 17.266 L 1440 273.266 L 1416 273.266 C 1392 273.266 1344 273.266 1296 273.266 C 1248 273.266 1200 273.266 1152 273.266 C 1104 273.266 1056 273.266 1008 273.266 C 960 273.266 912 273.266 864 273.266 C 816 273.266 768 273.266 720 273.266 C 672 273.266 624 273.266 576 273.266 C 528 273.266 480 273.266 432 273.266 C 384 273.266 336 273.266 288 273.266 C 240 273.266 192 273.266 144 273.266 C 96 273.266 48 273.266 24 273.266 L 0 273.266 L 0 17.266 Z" style="transform-box: fill-box; transform-origin: 50% 50%;"/>
</svg>